<?xml version="1.0" encoding="utf-8"?>
<!-- Generator: Adobe Illustrator 21.0.0, SVG Export Plug-In . SVG Version: 6.00 Build 0)  -->
<svg version="1.1" id="Layer_1" xmlns="http://www.w3.org/2000/svg" xmlns:xlink="http://www.w3.org/1999/xlink" x="0px" y="0px"
	 viewBox="0 0 285.9 199.9" style="enable-background:new 0 0 285.9 199.9;" xml:space="preserve">
<style type="text/css">
	.st0{fill:#D95E70;}
	.st1{fill:#4F60B7;}
	.st2{fill:#B1C9F6;}
	.st3{fill:#FFFFFF;}
	.st4{fill:#125166;}
	.st5{fill:#DFDCF7;}
	.st6{fill:#242E6C;}
	.st7{fill:#ECEBFC;}
	.st8{fill:#F16B81;}
	.st9{fill:#FF9792;}
	.st10{fill:#EFECEA;}
	.st11{fill:#EB3668;}
	.st12{fill:#A1C2E2;}
	.st13{fill:#E8F4FC;}
	.st14{fill:#9DB8C4;}
	.st15{fill:#41539E;}
	.st16{fill:#FF7D78;}
</style>
<g id="Group_2041" transform="translate(5574.715 -655.686)">
	<g id="Group_2040" transform="translate(-5597 299)">
		<path id="Path_46" class="st0" d="M50.1,556.3c-6.9,0-13.3-3.5-16.9-9.4c-8.6-13.8-19.9-41.3,0.9-70.3
			c26.2-36.7,56.8-34.2,79.3-19.3c9.6,6.3,37.1,0.8,60.6-36.6c32-51,142.9-20.1,122.7,58.3c-4.6,17.6,1.6,27.4,7.4,36.6
			c11.2,17.6-1.5,40.7-22.4,40.7L50.1,556.3z"/>
		<path id="Path_47" class="st1" d="M48.2,556.6c0,0,13-31.1,40.1-14.3c20.5,12.7,46.3-3.7,59.8-22.5s94.5,0.2,112.5,23.1
			c7.6,9.6,25.9,0.8,28.8,13.3L48.2,556.6z"/>
		<g id="Group_67" transform="translate(5131.338 1766.847)">
			<path id="Path_126" class="st2" d="M-5020.6-1376.3c0,0-15.3-0.7-7.2,45.8c0,0,5.4,15.8-1.4,26h101.2v-71.7H-5020.6z"/>
			<g id="Group_40" transform="translate(1 10)">
				<g id="Group_39">
					<g id="Group_36">
						<path id="Path_127" class="st3" d="M-4892.6-1353.2c0,0-5.1-9.6,2.5-13.3c0,0,5.4-1.8,9.2-0.7c0,0-7.5,7.9-6,9.2
							s7.7-9.4,7.7-9.4s11,1.4,14.1,3.8c0,0-10.9,5.5-9.1,6.3s13.4-4.3,13.4-4.3s9.6,4,7.7,9.9s-5.8,7.1-7.3,6.6s-9.6-5.9-10.1-4.7
							s4,6.5,7.7,7.5c0,0-8.8,6.2-13,2.9s-3.8-7-6.4-9s-5.1-2.6-4.2-0.9s5.9,4.2,6.9,7.5s2.1,5.7-2.6,3.8s-11.8-7.2-11.2-11.3
							L-4892.6-1353.2z"/>
					</g>
					<g id="Group_38">
						<g id="Group_37">
							<path id="Path_128" class="st3" d="M-4857.8-1352.5c0,0-27-7.2-34.7-0.7c-1.8,2.7-4.3,4.9-7.1,6.4l-1,1.6
								c0,0,5.8-3.9,7.6-3.8C-4893.1-1349.1-4893.6-1359.3-4857.8-1352.5z"/>
						</g>
						<path id="Path_129" class="st3" d="M-4899.7-1346.9c-4.3,2.2-7.6,6-9,10.6l1,0.3c0,0,3.7-7.6,7.7-9.9
							S-4899.7-1346.9-4899.7-1346.9z"/>
					</g>
				</g>
			</g>
			<g id="Group_45">
				<g id="Group_44">
					<g id="Group_41">
						<path id="Path_130" class="st4" d="M-4926.1-1370.6c0,0-15.1-7.9-8.5-19.3c0,0,5.3-7.1,11.2-9c0,0-2.7,16.9,0.5,17.2
							s1.6-19,1.6-19s15.4-8,21.5-7.6c0,0-9.2,16.7-6,16.2s13.5-17.4,13.5-17.4s15.9-3.4,18.8,6s-1.2,14.3-3.5,14.9
							s-17.6,0.9-17.1,2.9s10.8,4.8,16.5,2.9c0,0-5.9,15.8-14.2,15.3s-11-5.6-16.2-5.8s-8.9,1.3-6.3,2.6s11.3,0.1,15.5,3.5
							s7.7,5.5,0,7.3s-21.5,1.2-24.5-4.6L-4926.1-1370.6z"/>
					</g>
					<g id="Group_43">
						<g id="Group_42">
							<path id="Path_131" class="st4" d="M-4880.7-1400.4c0,0-41.1,14.7-45.4,29.8c0,5.1-1.2,10.1-3.5,14.5l0.1,3
								c0,0,4-10.2,6.4-11.7C-4923.1-1364.7-4932.8-1377.5-4880.7-1400.4z"/>
						</g>
						<path id="Path_132" class="st4" d="M-4929.6-1356c0,0-6.1,9.9-2.1,21.6l1.6-0.5c0,0-2-13,1.2-19.6S-4929.6-1356-4929.6-1356z"
							/>
					</g>
				</g>
			</g>
			<rect id="Rectangle_14" x="-5014.2" y="-1348.8" class="st5" width="105.7" height="137.8"/>
			<rect id="Rectangle_15" x="-5010.8" y="-1348.8" class="st6" width="103.9" height="137.8"/>
			<path id="Path_133" class="st7" d="M-4906.8-1348.8h-103.9c0.6-7.9-0.3-13.6-1.7-17.7c-2.7-7.9-7.3-9.9-7.3-9.9h98
				c8.4,0,14.9,5,16.6,11.7c0.1,0.3,0.1,0.5,0.2,0.8C-4903.2-1356.2-4906.8-1348.9-4906.8-1348.8z"/>
			<path id="Path_134" class="st5" d="M-4906.8-1348.8h-103.9c0.6-7.9-0.3-13.6-1.7-17.7c10.6,1.9,36.9,6.1,65.1,5.4
				c18.2-0.5,32.6-1.7,42.5-2.8C-4903.2-1356.2-4906.8-1348.9-4906.8-1348.8z"/>
			<g id="Group_50">
				<g id="Group_49">
					<g id="Group_46">
						<path id="Rectangle_16" class="st7" d="M-4989.1-1319.6h54.6c0.7,0,1.3,0.6,1.3,1.3l0,0c0,0.7-0.6,1.3-1.3,1.3h-54.6
							c-0.7,0-1.3-0.6-1.3-1.3l0,0C-4990.4-1319-4989.9-1319.6-4989.1-1319.6z"/>
					</g>
					<g id="Group_47">
						<path id="Rectangle_17" class="st7" d="M-4989.1-1315.2h33c0.7,0,1.3,0.6,1.3,1.3v0c0,0.7-0.6,1.3-1.3,1.3h-33
							c-0.7,0-1.3-0.6-1.3-1.3v0C-4990.4-1314.7-4989.9-1315.2-4989.1-1315.2z"/>
					</g>
					<g id="Group_48">
						<path id="Path_135" class="st7" d="M-4995.7-1313.1v-5.3h-0.7c-0.4,0-0.6-0.2-0.6-0.5c0-0.3,0.2-0.4,0.5-0.5
							c0.3-0.1,0.5-0.1,0.8-0.1c0.4,0,0.7,0,0.9,0c0.2,0,0.4,0,0.4,0.1c0.1,0.2,0.1,0.4,0.1,0.7v5.7h0.7c0.5,0,0.7,0.2,0.7,0.6
							c0,0.4-0.2,0.6-0.7,0.6h-2.9c-0.2,0-0.4-0.1-0.5-0.2c-0.1-0.1-0.2-0.3-0.2-0.5c0-0.4,0.2-0.6,0.7-0.6L-4995.7-1313.1z"/>
					</g>
				</g>
			</g>
			<g id="Group_55">
				<g id="Group_54">
					<g id="Group_51">
						<path id="Rectangle_18" class="st7" d="M-4989.1-1292.4h54.6c0.7,0,1.3,0.6,1.3,1.3v0c0,0.7-0.6,1.3-1.3,1.3h-54.6
							c-0.7,0-1.3-0.6-1.3-1.3v0C-4990.4-1291.8-4989.9-1292.4-4989.1-1292.4z"/>
					</g>
					<g id="Group_52">
						<path id="Rectangle_19" class="st7" d="M-4989.1-1288h33c0.7,0,1.3,0.6,1.3,1.3v0c0,0.7-0.6,1.3-1.3,1.3h-33
							c-0.7,0-1.3-0.6-1.3-1.3v0C-4990.4-1287.4-4989.9-1288-4989.1-1288z"/>
					</g>
					<g id="Group_53">
						<path id="Path_136" class="st7" d="M-4992.9-1286c0,0.4-0.2,0.5-0.7,0.5h-3.1c-0.4,0-0.7-0.2-0.7-0.5c0-0.1,0.1-0.3,0.2-0.4
							c0.2-0.2,0.4-0.5,0.8-0.9c0.5-0.6,0.9-1.2,1.3-1.7c0.1-0.2,0.3-0.4,0.5-0.7c0.2-0.2,0.2-0.5,0.3-0.8c0-0.2-0.1-0.4-0.2-0.6
							c-0.2-0.2-0.4-0.2-0.6-0.2c-0.2,0-0.4,0.1-0.6,0.2c-0.1,0.2-0.2,0.3-0.3,0.6c0,0.2-0.1,0.4-0.2,0.6c-0.1,0.2-0.3,0.3-0.5,0.3
							c-0.2,0-0.3-0.1-0.4-0.2c-0.1-0.1-0.2-0.3-0.1-0.5c0-0.2,0-0.4,0.1-0.7c0.1-0.4,0.4-0.8,0.8-1.1c0.4-0.3,0.9-0.4,1.3-0.4
							c0.5,0,1,0.2,1.4,0.5c0.4,0.4,0.6,0.9,0.6,1.4c0,0.5-0.2,0.9-0.4,1.3c-0.2,0.2-0.5,0.7-1,1.3c-0.2,0.3-0.6,0.8-1.2,1.4h2
							C-4993.1-1286.5-4992.9-1286.3-4992.9-1286z"/>
					</g>
				</g>
			</g>
			<g id="Group_60">
				<g id="Group_59">
					<g id="Group_56">
						<path id="Rectangle_20" class="st7" d="M-4989.1-1269.7h54.6c0.7,0,1.3,0.6,1.3,1.3l0,0c0,0.7-0.6,1.3-1.3,1.3h-54.6
							c-0.7,0-1.3-0.6-1.3-1.3l0,0C-4990.4-1269.1-4989.9-1269.7-4989.1-1269.7z"/>
					</g>
					<g id="Group_57">
						<path id="Rectangle_21" class="st7" d="M-4989.1-1265.3h33c0.7,0,1.3,0.6,1.3,1.3v0c0,0.7-0.6,1.3-1.3,1.3h-33
							c-0.7,0-1.3-0.6-1.3-1.3v0C-4990.4-1264.7-4989.9-1265.3-4989.1-1265.3z"/>
					</g>
					<g id="Group_58">
						<path id="Path_137" class="st7" d="M-4992.9-1264.9c0,0.6-0.2,1.2-0.7,1.6c-0.5,0.4-1.1,0.6-1.7,0.6c-0.5,0-0.9-0.1-1.3-0.4
							c-0.5-0.3-0.9-0.8-0.9-1.4c0-0.2,0.1-0.3,0.2-0.4c0.1-0.1,0.2-0.2,0.4-0.2c0.2,0,0.4,0.2,0.5,0.3c0.2,0.4,0.4,0.6,0.4,0.6
							c0.2,0.2,0.5,0.3,0.8,0.3c0.4,0,0.8-0.2,1-0.5c0.1-0.2,0.1-0.4,0.1-0.6c0-0.6-0.4-1-1.1-1c-0.4,0-0.6-0.2-0.6-0.5
							c0-0.2,0.1-0.4,0.4-0.5c0.4-0.2,0.7-0.3,0.7-0.3c0.3-0.2,0.4-0.5,0.4-0.8c0-0.2-0.1-0.4-0.2-0.6c-0.2-0.1-0.4-0.2-0.6-0.2
							c-0.2,0-0.5,0.1-0.7,0.2c-0.2,0.2-0.3,0.4-0.4,0.6c0,0.2-0.2,0.3-0.4,0.3c-0.2,0-0.3-0.1-0.4-0.2c-0.1-0.1-0.1-0.3-0.1-0.4
							c0-0.2,0.1-0.4,0.2-0.6c0.2-0.3,0.5-0.6,0.8-0.8c0.3-0.2,0.7-0.3,1.1-0.3c0.5,0,1,0.2,1.4,0.5c0.4,0.3,0.6,0.8,0.5,1.3
							c0,0.6-0.3,1.2-0.8,1.5C-4993.3-1266.4-4992.8-1265.7-4992.9-1264.9z"/>
					</g>
				</g>
			</g>
			<g id="Group_64">
				<g id="Group_63">
					<g id="Group_61">
						<path id="Rectangle_22" class="st7" d="M-4974.6-1342.6h33.5c0.8,0,1.5,0.7,1.5,1.5l0,0c0,0.8-0.7,1.5-1.5,1.5h-33.5
							c-0.8,0-1.5-0.7-1.5-1.5l0,0C-4976.1-1342-4975.4-1342.6-4974.6-1342.6z"/>
					</g>
					<g id="Group_62">
						<path id="Rectangle_23" class="st7" d="M-4983.8-1338h51.9c0.8,0,1.5,0.7,1.5,1.5l0,0c0,0.8-0.7,1.5-1.5,1.5h-51.9
							c-0.8,0-1.5-0.7-1.5-1.5l0,0C-4985.3-1337.3-4984.6-1338-4983.8-1338z"/>
					</g>
				</g>
			</g>
			<g id="Group_65">
				<path id="Path_138" class="st8" d="M-4961.9-1303.1c-10.1,0.1-20.2-1.1-30.1-3.5c-8.1-2.1-12.4-5.4-12.4-8.4
					c0-2.7,3.6-5.2,10.3-7.2l0,0c-6.4,1.9-9.9,4.7-9.9,7.2c0,2.7,4.5,5.4,12.2,7.4c8,2,18.6,3.1,29.9,3.1s21.9-1.1,29.9-3.1
					c7.8-2,12.2-4.7,12.2-7.4c0-2.9-4.7-6.5-12.3-9.3c-8.6-3.3-19.2-4.5-29.9-4.5c-20,0-28.2,2.3-35.4,5.3l0,0
					c7.2-2.9,15.3-6.3,35.4-6.3c10.2-0.1,20.4,1.6,30,5.1c7.7,2.9,12.5,6.7,12.5,9.7c0,3-4.5,5.7-12.5,7.8
					C-4941.7-1304.5-4951.8-1303.2-4961.9-1303.1z"/>
			</g>
			<path id="Path_139" class="st9" d="M-4893.2-1276c-0.1,1.5-0.4,2.9-0.8,4.3c-0.8,1.2-1.8,2.3-2.9,3.3c-0.7,0.4,0.5-2.9,0.3-3.5
				s-0.6,1.2-0.9,1.2s-0.2-1.6-0.3-2.2s1.6-2.1,2.2-3.3S-4893.2-1276-4893.2-1276z"/>
			<path id="Path_140" class="st9" d="M-4937.7-1309.4l-0.8-1.6c0,0,0.4-2.8-3.1-4.6c-0.7-0.3-1.5-0.1-2,0.5c-0.7,1,1.3,0.8,1.2,2.4
				c-0.2,1.3,0.5,2.6,1.8,3.2l0.9,1L-4937.7-1309.4z"/>
			<path id="Path_141" class="st1" d="M-4904.5-1313.2c-2.6,9.6-10,17-19.6,19.6c-5.2,1.5-16.9-15.5-16.9-15.5s0.4-1.6,3-1.2
				c0,0,11.5,7.6,12.9,8.4c1.3,0.7,9.7-9.4,13.5-11C-4909.4-1313.9-4906.8-1314-4904.5-1313.2z"/>
			<g id="Group_66">
				
					<rect id="Rectangle_24" x="-4942.7" y="-1321.1" transform="matrix(0.1518 -0.9884 0.9884 0.1518 -2892.9111 -5997.8867)" class="st10" width="3.1" height="15.6"/>
				<path id="Path_142" class="st11" d="M-4952.5-1315.1l3.3,2.1l0.5-3.1L-4952.5-1315.1z"/>
				<path id="Path_143" class="st11" d="M-4931.6-1312.4l-0.1,1c-0.1,0.6-0.6,1-1.2,0.9c0,0,0,0,0,0l-0.7-0.1l0.5-3.1l0.8,0.1
					C-4931.9-1313.5-4931.5-1313-4931.6-1312.4C-4931.6-1312.4-4931.6-1312.4-4931.6-1312.4z"/>
			</g>
			<path id="Path_144" class="st12" d="M-4884.7-1220.2c0,0,2.1,1.9,1.7,3.2s-2.3,2.2-2.5,3.9s-1.3,2.5-2.2,2.5h-4.3
				c0,0-0.7-1.1,0.9-1.5s2.2-2.3,2.1-4c0-1.4,0-2.8,0.1-4.2l3.4-0.8L-4884.7-1220.2z"/>
			<path id="Path_145" class="st12" d="M-4910-1215.3c0,0,0.4,4.3-0.5,4.7l-11.6,0c0,0,0-1.3,1.9-1.6s5.1-1.4,5.7-3.8
				S-4910-1215.3-4910-1215.3z"/>
			<path id="Path_146" class="st13" d="M-4919.7-1275.7c0,0,0.6,7.5,1.3,16.5c1,12.2,2.1,27.2,2.3,30.1c0.2,4.9,1,12.8,1,12.8
				s1.9,1.9,5.7,1.1c2.2-7.6,3.6-15.4,4.4-23.2c0-0.2,0-0.4,0-0.6c0.9-12.2,2.3-37.7,2.3-37.7L-4919.7-1275.7z"/>
			<path id="Path_147" class="st14" d="M-4919.7-1275.7c0,0,0.6,7.5,1.3,16.5l13.4,20.8c0-0.2,0-0.4,0-0.6
				c0.9-12.2,2.3-37.7,2.3-37.7L-4919.7-1275.7z"/>
			<path id="Path_148" class="st13" d="M-4916.9-1274.8c0,0,11,27.1,18.2,39.9s9.5,16.3,9.5,16.3s4.1-1.6,4.5-2.7
				c0,0-2.8-24.6-7.6-30.6c-2.7-3.4-5.9-13.6-6.1-17.1s-1-10.6-1-10.6L-4916.9-1274.8z"/>
			<path id="Path_149" class="st9" d="M-4902.5-1316.6c0,0-7.4,3.6-11.7,2.3c0.8-0.9,1.8-1.7,2.9-2.3c-0.1-0.9-0.3-1.6-0.3-2.2
				c-0.1-0.8-0.2-1.5-0.2-2.3l2.9-2.3l2.7-2.2C-4906.5-1322.2-4905.1-1318.9-4902.5-1316.6z"/>
			<path id="Path_150" class="st1" d="M-4898.6-1278.3c0,0.5-1,1-1.4,1.2c-3,1.4-6.2,2.3-9.5,2.7c-4,0.4-8.7-0.5-10.3-0.5
				c-0.2,0-0.3-0.1-0.4-0.2c-0.1-0.1-0.2-4.9-0.1-10.9c0-0.2,0-0.5,0-0.7v-0.1c0-2.4,0.1-4.8,0.2-7.3c0.1-4.5,0.5-9.1,1.4-13.5
				c0.8-2.8,2.4-5.4,4.6-7.3l1.5-1.3c1.6,0.3,3.2,0.1,4.6-0.6c1.7-0.8,3.6-1.7,3.9-1.5c2.2,1.6,3.8,5.3,4.6,10
				c0.5,3,0.7,5.9,0.7,8.9c0,1.2,0,2.4-0.1,3.6c-0.3,5.1-0.2,10.2,0.2,15.2C-4898.6-1279.6-4898.6-1278.8-4898.6-1278.3z"/>
			<path id="Path_151" class="st15" d="M-4898.7-1278.6c-26-0.1-4.8-28.2-4.8-28.2l4.2-1.4c0.3,3.2,0.5,6.4,0.5,9.5
				c0,1.2,0,2.5-0.1,3.8C-4899.1-1288-4898.9-1282-4898.7-1278.6z"/>
			<path id="Path_152" class="st16" d="M-4906.2-1323.3c-1.2,2.1-3.2,3.6-5.5,4.4c-0.1-0.8-0.2-1.5-0.2-2.3l2.9-2.3L-4906.2-1323.3z
				"/>
			<path id="Path_153" class="st9" d="M-4913.1-1321.3c0,0,7.1,1.2,7.8-3.2s2-7.1-2.5-8.1s-5.6,0.6-6.2,2
				S-4914.9-1321.7-4913.1-1321.3z"/>
			<path id="Path_154" class="st3" d="M-4902.8-1333.1c0.1-0.1,0.2-0.1,0.5-0.2c-0.2-0.1-0.4-0.2-0.6-0.2c0-0.7-0.5-1.2-1.1-1.5
				c0.3,0.2,0.4,0.4,0.5,0.7c-0.9-0.9-2.9-1.6-8.3-1.2c-7.2,0.6-4.8,5.2-3.9,5.7s3.3-1,5-0.8s2.1,2.6,2.6,3s0.4-0.3,1.1-0.6
				s0.9,1,0.6,1.8s0.9,2,0.9,2l1.1-1.2c1.1-1.2,2.1-6.2,1.6-7.3C-4902.7-1332.9-4902.7-1333-4902.8-1333.1z"/>
			<path id="Path_155" class="st1" d="M-4904.1-1318.3c0,0,4.5,2.1,6.6,5.4c3.3,5.1,7.2,23.5,7.3,25.2s-2.8,13.8-2.8,13.8
				s-2.9-0.2-3.7-1.7c0,0,0.6-12.4,0.2-13.2s-12.2-16.6-10.9-20S-4904.1-1318.3-4904.1-1318.3z"/>
			<path id="Path_156" class="st9" d="M-4938.5-1311.1c0,0,0.2-1-0.4-1.4s-1.3-1.6-1.6-1.5c-0.6,0.3,0.3,1.4,0.2,2.6
				C-4940.4-1310.8-4939.4-1309.6-4938.5-1311.1z"/>
			<path id="Path_157" class="st3" d="M-4930.4-1240.9h-63.9c-0.4,0-0.8-0.3-0.8-0.8l0,0c0-0.4,0.3-0.8,0.8-0.8h63.9
				c0.4,0,0.8,0.3,0.8,0.8l0,0C-4929.6-1241.3-4930-1240.9-4930.4-1240.9z"/>
			<path id="Path_158" class="st3" d="M-4930.4-1237.8h-63.9c-0.4,0-0.8-0.3-0.8-0.8l0,0c0-0.4,0.3-0.8,0.8-0.8h63.9
				c0.4,0,0.8,0.3,0.8,0.8l0,0C-4929.6-1238.2-4930-1237.8-4930.4-1237.8z"/>
			<path id="Path_159" class="st3" d="M-4930.4-1234.4h-63.9c-0.4,0-0.8-0.3-0.8-0.8l0,0c0-0.4,0.3-0.8,0.8-0.8h63.9
				c0.4,0,0.8,0.3,0.8,0.8l0,0C-4929.6-1234.7-4930-1234.4-4930.4-1234.4z"/>
			<path id="Path_160" class="st3" d="M-4938.8-1230.9h-55.5c-0.4,0-0.8-0.3-0.8-0.8l0,0c0-0.4,0.3-0.8,0.8-0.8h55.5
				c0.4,0,0.8,0.3,0.8,0.8l0,0C-4938.1-1231.3-4938.4-1230.9-4938.8-1230.9z"/>
		</g>
	</g>
</g>
</svg>
