<?xml version="1.0" encoding="utf-8"?>
<!-- Generator: Adobe Illustrator 21.0.0, SVG Export Plug-In . SVG Version: 6.00 Build 0)  -->
<svg version="1.1" id="Layer_1" xmlns="http://www.w3.org/2000/svg" xmlns:xlink="http://www.w3.org/1999/xlink" x="0px" y="0px"
	 viewBox="0 0 236 224.2" style="enable-background:new 0 0 236 224.2;" xml:space="preserve">
<style type="text/css">
	.st0{fill:#116F84;}
	.st1{fill:#7AC79B;}
	.st2{fill:#4F60B7;}
	.st3{fill:#242E6C;}
	.st4{fill:#B1C9F6;}
	.st5{fill:#1B2251;}
	.st6{fill:#BC67F9;}
	.st7{fill:#FFFFFF;}
	.st8{fill:#72A7D3;}
	.st9{fill:#E8F4FC;}
	.st10{fill:#A1C2E2;}
	.st11{fill:#4061BF;}
	.st12{fill:none;stroke:#231F20;stroke-miterlimit:10;}
	.st13{fill:#BABABA;}
	.st14{opacity:0.5;fill:#2D2D2D;enable-background:new    ;}
	.st15{fill:#2D2D2D;}
	.st16{fill:#AAAAAA;}
	.st17{fill:#F16B81;}
</style>
<g id="Group_2039" transform="translate(-61.987 -30.87)">
	<g id="Group_11" transform="translate(5131.338 1760.847)">
		<g id="Group_10">
			<g id="Group_8">
				<path id="Path_48" class="st0" d="M-4883.4-1603.7c0,0,13.8-20.4,31.6-27.7c1.4-0.6,3,0.1,3.6,1.5c0.3,0.8,0.3,1.6-0.1,2.3
					c0,0,0,0.1-0.1,0.1C-4850.5-1623.7-4871.4-1613.7-4883.4-1603.7z"/>
			</g>
			<g id="Group_9">
				<path id="Path_49" class="st0" d="M-4887.9-1598.2c0,0,25.1-21.5,50.3-23.7c1.5-0.2,2.9,0.9,3.2,2.5c0.1,1-0.2,2.3-1.7,3.8
					C-4840.2-1611.7-4869.6-1606.5-4887.9-1598.2z"/>
			</g>
		</g>
	</g>
	<path id="Path_50" class="st0" d="M202.4,83.2c-4.3-4.7-12.6,1.8-12.6,1.8s-1.3,12.8-3,13.9s-1-11.1-1-11.1
		c-3.7,1.5-10.4,10.5-10.4,10.5s6.3,10.8,4.4,11.5s-5.1-9.9-5.1-9.9c-2.9,2.8-4,8.4-4,8.4c-0.6,8.5,10.4,8.9,10.4,8.9
		c1.4,2.9,2.1,6.2,2,9.4l0,0c-0.1,0.9,0,1.8,0.1,2.8l0.9-0.5c-0.1-0.3-0.1-0.6-0.1-0.8v0v0c0-0.2,0-0.4,0-0.7l0,0l0,0
		c0-0.7,0-1.2-0.1-1.6l0,0c-0.1-2.2,0-5.1,0.5-6c-0.2-0.1-0.3-0.2-0.4-0.3l0.4,0.3c3.4,2.6,11.6-1,15.5-4.2s1.4-3.4-2.1-4.2
		s-8.1,2.3-10,2.3s-0.1-1.9,2.9-3.2s6.1,0.9,11.1-1.2s4-12.9,4-12.9c-2.8,2.7-9.6,4-10.4,3s8-5.4,9.1-6.5S206.7,87.9,202.4,83.2z"/>
	<path id="Path_51" class="st1" d="M250.7,76.5c-6.4-6.9-18.6,2.7-18.6,2.7s-1.9,18.9-4.4,20.6s-1.5-16.4-1.5-16.4
		c-5.5,2.2-15.4,15.5-15.4,15.5s9.4,16,6.5,17s-7.6-14.6-7.6-14.6c-4.2,4.1-5.9,12.4-5.9,12.4c-0.9,12.6,15.3,13.1,15.3,13.1
		c2.1,4.3,3.1,9.1,3,14l0,0c-0.1,1.4-0.1,2.7,0.1,4.1l1.4-0.7c-0.1-0.4-0.1-0.8-0.2-1.3v0c0-0.3,0-0.6-0.1-1.1l0,0
		c0-1,0-1.8-0.1-2.3l0,0c-0.1-3.2,0-7.5,0.8-8.8c-0.2-0.1-0.4-0.3-0.6-0.5l0.6,0.5c5,3.8,17.1-1.5,23-6.2s2-5.1-3-6.3
		s-12,3.5-14.8,3.4s-0.2-2.9,4.3-4.8s9,1.3,16.4-1.7s5.8-19,5.8-19c-4.1,4-14.2,5.9-15.4,4.4s11.8-8.1,13.5-9.6
		S257.1,83.4,250.7,76.5z"/>
	<path id="Path_52" class="st1" d="M71,139.6c0-10.5,17.3-11.9,17.3-11.9s15.9,14.1,19.2,13.6s-11.2-14.7-11.2-14.7
		c6.2-2.3,24.4,1,24.4,1s4.4,20.3,7.6,19s-4.8-17.7-4.8-17.7c6.6,0.2,14.3,5.8,14.3,5.8c10.3,9.7-2.7,22.4-2.7,22.4
		c1.6,5.2,4.4,9.9,8.1,13.8l0,0c1.1,1,2.1,2.2,3,3.4l-1.7,0.5c-0.3-0.4-0.5-0.8-0.8-1.2v0l0,0c-0.2-0.2-0.4-0.5-0.8-0.9l0,0l0,0
		c-0.8-0.9-1.3-1.5-1.7-2v0c-2.4-2.7-5.7-6.2-7.4-6.7c0.1-0.3,0.1-0.6,0.1-0.9l-0.1,0.9c-1.2,6.9-15.2,11.8-23.6,12.3
		s-5.5-2.7-2.2-7.5s12.5-6.3,14.8-8.4s-2-2.5-7.2-0.7s-6.4,7.9-14.7,11s-19.2-11.2-19.2-11.2c6.4,0.2,16.1-5.9,16-8.1
		s-15.8,2.3-18.4,2.4S71,150.1,71,139.6z"/>
	<g id="Group_12" transform="translate(5131.338 1760.847)">
		<path id="Path_53" class="st2" d="M-4869.5-1577.2c0,4.3-0.4,8.6-1.2,12.9c-6.2,33.9-35.8,58.6-70.3,58.6
			c-28.3,0-53.9-16.7-65.4-42.5c-1.5-3.3-2.7-6.8-3.6-10.3c-1.6-6.1-2.5-12.4-2.5-18.7c0-5.2,0.6-10.3,1.7-15.4
			c2.9-13.3,9.6-25.5,19.2-35.1c2.7-2.7,5.6-5.2,8.7-7.4c12.2-8.8,26.9-13.6,41.9-13.6c1.8,0,3.6,0.1,5.4,0.2c2.5,0.2,5,0.5,7.4,0.9
			c16.3,3,31.1,11.5,41.7,24.2c2.1,2.5,4.1,5.1,5.8,7.9C-4873.3-1604-4869.5-1590.8-4869.5-1577.2z"/>
		<path id="Path_54" class="st3" d="M-4869.5-1577.2c0,4.3-0.4,8.6-1.2,12.9c-0.8,4.3-1.9,8.5-3.5,12.5
			c-10.5,27.7-37.1,46.1-66.8,46.1c-11.7,0-23.3-2.9-33.6-8.4c-0.9-0.5-1.8-1-2.7-1.5c-8.7-5.1-16.2-12.1-22-20.3
			c-2.7-3.9-5.1-8-7-12.3c-1.5-3.3-2.7-6.8-3.6-10.3c11.8,2.8,24,3.8,36.1,3c2.7-0.2,5.4-0.4,8.2-0.8c10.8-1.4,21.4-4.3,31.4-8.6
			c26-11.2,43.5-33.5,53.7-50.4C-4873.3-1604-4869.5-1590.8-4869.5-1577.2z"/>
		<path id="Path_55" class="st4" d="M-4869.5-1577.2c0,4.3-0.4,8.6-1.2,12.9c-3-0.5-6-0.7-9-0.6c-4.2,0.5-8.4,9.2-17.1,9.5
			s-19.3-6.3-30.7-1.8s-17.3-0.2-19.3-3.5s5-10.7,4.3-13.9s0.9-14.1,10.5-14.1s13.7-5.3,15.4-7.2c4.9-5.5,8.7-0.5,12.6-4.7
			s-3-11.6,0-16.6s17.6-6.2,17.6-6.2C-4875.5-1610.5-4869.5-1594.1-4869.5-1577.2z"/>
		<path id="Path_56" class="st4" d="M-4974.8-1589.4c-3.5,4.9,1.2,15-1.7,20.2s-8.7,4.2-12.9,6.7c-3.7,2.2-5.1,11-16.9,14.1
			c-4-9.1-6.1-19-6.1-28.9c0-5.2,0.6-10.3,1.7-15.4c2.8-2.8,6.3-4.8,10.1-5.8c14.1-3.7,14.5-14.1,20.2-14.3
			C-4966.5-1613.2-4971.4-1594.3-4974.8-1589.4z"/>
		<path id="Path_57" class="st4" d="M-4921.6-1616.3c0,0-8.7-1.7-13.4,1.2s-14.2,8.3-13,11.4s10.3,5.4,14,5.3s1.2-7.5,19.2-5.3
			C-4910.2-1603.2-4910.1-1613.2-4921.6-1616.3z"/>
		<path id="Path_58" class="st4" d="M-4928.1-1647.5c-4.4,7.7-12.4,17.4-26,20.9c-12.3,3.2-25.3,2.8-37.4-1.1
			c2.7-2.7,5.6-5.2,8.7-7.4c12.2-8.8,26.9-13.6,41.9-13.6c1.8,0,3.6,0.1,5.4,0.2C-4933.1-1648.3-4930.6-1648-4928.1-1647.5z"/>
		<path id="Path_59" class="st5" d="M-4874.1-1551.9c-10.5,27.7-37.1,46.1-66.8,46.1c-11.7,0-23.3-2.9-33.6-8.4
			c-0.9-0.5-1.8-1-2.7-1.5C-4958.9-1517.1-4912.9-1523.4-4874.1-1551.9z"/>
		<path id="Path_60" class="st4" d="M-4962.8-1531.3c-3.8,2.8-4.7,11.3-7.1,12.4c-1.2,0.6-3.1,2.7-4.7,4.7
			c-9.8-5.3-18.3-12.7-24.7-21.8c4.3-3,12.3-8,17.9-8.1c0,0,2.8,0,4.9-5.7c0.7-2,1.6-3.9,2.7-5.7c1.6-2.3,3.4-3.4,5.9-2.5
			c0.9,0.3,1.7,0.9,2.2,1.7c1.4,2.1,1.5,5.6,5.6,8.9C-4954.6-1543.1-4959-1534.1-4962.8-1531.3z"/>
	</g>
	<g id="Group_13" transform="translate(5131.338 1760.847)">
		<path id="Path_61" class="st6" d="M-4908.6-1627.3c0,0-0.7-13.4-17.3-15.8C-4925.9-1643.1-4926.5-1627.3-4908.6-1627.3z"/>
		<path id="Path_62" class="st6" d="M-4909.3-1627.4c0,0,13.2,2.5,18.6-13.3C-4890.7-1640.7-4906-1645-4909.3-1627.4z"/>
		<path id="Path_63" class="st6" d="M-4909.2-1633c0,0,5.9-4.8,1.1-12.8C-4908.1-1645.8-4915.5-1640.8-4909.2-1633z"/>
		<path id="Path_64" class="st6" d="M-4909.3-1627.4c0,0-2,8.6-1.6,11.7h1.6c0,0-0.6-8,0.9-12.1L-4909.3-1627.4z"/>
	</g>
	<g id="Group_19" transform="translate(5131.338 1760.847)">
		<g id="Group_18">
			<g id="Group_14">
				<path id="Path_65" class="st6" d="M-4891-1606.3c0,0-0.4-6.4-8.2-7.5C-4899.2-1613.8-4899.5-1606.3-4891-1606.3z"/>
			</g>
			<g id="Group_15">
				<path id="Path_66" class="st6" d="M-4891.4-1606.3c0,0,6.3,1.2,8.8-6.3C-4882.6-1612.6-4889.8-1614.6-4891.4-1606.3z"/>
			</g>
			<g id="Group_16">
				<path id="Path_67" class="st6" d="M-4891.3-1609c0,0,2.8-2.3,0.5-6.1C-4890.8-1615-4894.3-1612.7-4891.3-1609z"/>
			</g>
			<g id="Group_17">
				<path id="Path_68" class="st6" d="M-4891.4-1606.3c-0.4,1.8-0.7,3.7-0.8,5.5h0.8c0,0-0.3-3.8,0.4-5.7L-4891.4-1606.3z"/>
			</g>
		</g>
	</g>
	<g id="Group_25" transform="translate(5131.338 1760.847)">
		<g id="Group_24">
			<g id="Group_20">
				<path id="Path_69" class="st6" d="M-4918.3-1621.5c0,0-0.2-4-5.1-4.7C-4923.4-1626.2-4923.6-1621.5-4918.3-1621.5z"/>
			</g>
			<g id="Group_21">
				<path id="Path_70" class="st6" d="M-4918.5-1621.5c0,0,3.9,0.7,5.5-3.9C-4913-1625.5-4917.5-1626.8-4918.5-1621.5z"/>
			</g>
			<g id="Group_22">
				<path id="Path_71" class="st6" d="M-4918.4-1623.2c1.1-1,1.2-2.6,0.3-3.8c-1.1,0.8-1.4,2.3-0.7,3.4
					C-4918.7-1623.5-4918.5-1623.3-4918.4-1623.2z"/>
			</g>
			<g id="Group_23">
				<path id="Path_72" class="st6" d="M-4918.5-1621.5c-0.3,1.1-0.4,2.3-0.5,3.5h0.5c-0.1-1.2,0-2.4,0.3-3.6L-4918.5-1621.5z"/>
			</g>
		</g>
	</g>
	<g id="Group_26" transform="translate(5131.338 1760.847)">
		<path id="Path_73" class="st7" d="M-4872.8-1512.9c1.9,0,3.8-0.2,5.7-0.4c-1.9-0.2-3.8-0.4-5.7-0.4c-0.4,0-0.8-0.4-0.8-0.8
			c0-1.9-0.2-3.8-0.4-5.7c-0.2,1.9-0.4,3.8-0.4,5.7c0,0.4-0.4,0.8-0.8,0.8c-1.9,0-3.8,0.2-5.7,0.4c1.9,0.2,3.8,0.4,5.7,0.4
			c0.4,0,0.8,0.4,0.8,0.8c0,1.9,0.2,3.8,0.4,5.7c0.2-1.9,0.4-3.8,0.4-5.7C-4873.5-1512.5-4873.2-1512.9-4872.8-1512.9z"/>
		<path id="Path_74" class="st7" d="M-4849.5-1575.9c1.9,0,3.8-0.2,5.7-0.4c-1.9-0.2-3.8-0.4-5.7-0.4c-0.4,0-0.8-0.4-0.8-0.8
			c0-1.9-0.2-3.8-0.4-5.7c-0.2,1.9-0.4,3.8-0.4,5.7c0,0.4-0.4,0.8-0.8,0.8c-1.9,0-3.8,0.2-5.7,0.4c1.9,0.2,3.8,0.4,5.7,0.4
			c0.4,0,0.8,0.4,0.8,0.8c0,1.9,0.2,3.8,0.4,5.7c0.2-1.9,0.4-3.8,0.4-5.7C-4850.3-1575.5-4849.9-1575.9-4849.5-1575.9z"/>
		<path id="Path_75" class="st7" d="M-5061.2-1656.5c1.9,0,3.8-0.2,5.7-0.4c-1.9-0.2-3.8-0.4-5.7-0.4c-0.4,0-0.8-0.4-0.8-0.8
			c0-1.9-0.2-3.8-0.4-5.7c-0.2,1.9-0.4,3.8-0.4,5.7c0,0.4-0.4,0.8-0.8,0.8c-1.9,0-3.8,0.2-5.7,0.4c1.9,0.2,3.8,0.4,5.7,0.4
			c0.4,0,0.8,0.4,0.8,0.8c0,1.9,0.2,3.8,0.4,5.7c0.2-1.9,0.4-3.8,0.4-5.7C-5062-1656.2-5061.7-1656.5-5061.2-1656.5z"/>
		<path id="Path_76" class="st7" d="M-5024.2-1535.3c1.9,0,3.8-0.2,5.7-0.4c-1.9-0.2-3.8-0.4-5.7-0.4c-0.4,0-0.8-0.4-0.8-0.8
			c0-1.9-0.2-3.8-0.4-5.7c-0.2,1.9-0.4,3.8-0.4,5.7c0,0.4-0.4,0.8-0.8,0.8c-1.9,0-3.8,0.2-5.7,0.4c1.9,0.2,3.8,0.4,5.7,0.4
			c0.4,0,0.8,0.4,0.8,0.8c0,1.9,0.2,3.8,0.4,5.7c0.2-1.9,0.4-3.8,0.4-5.7C-5025-1534.9-5024.6-1535.3-5024.2-1535.3z"/>
		<path id="Path_77" class="st7" d="M-4839-1632.3c1.9,0,3.8-0.2,5.7-0.4c-1.9-0.2-3.8-0.4-5.7-0.4c-0.4,0-0.8-0.4-0.8-0.8
			c0-1.9-0.2-3.8-0.4-5.7c-0.2,1.9-0.4,3.8-0.4,5.7c0,0.4-0.4,0.8-0.8,0.8c-1.9,0-3.8,0.2-5.7,0.4c1.9,0.2,3.8,0.4,5.7,0.4
			c0.4,0,0.8,0.4,0.8,0.8c0,1.9,0.2,3.8,0.4,5.7c0.2-1.9,0.4-3.8,0.4-5.7C-4839.8-1631.9-4839.5-1632.3-4839-1632.3z"/>
		<path id="Path_78" class="st7" d="M-5044.4-1586.2c1.9,0,3.8-0.2,5.7-0.4c-1.9-0.2-3.8-0.4-5.7-0.4c-0.4,0-0.8-0.4-0.8-0.8
			c0-1.9-0.2-3.8-0.4-5.7c-0.2,1.9-0.4,3.8-0.4,5.7c0,0.4-0.4,0.8-0.8,0.8c-1.9,0-3.8,0.2-5.7,0.4c1.9,0.2,3.8,0.4,5.7,0.4
			c0.4,0,0.8,0.4,0.8,0.8c0,1.9,0.2,3.8,0.4,5.7c0.2-1.9,0.4-3.8,0.4-5.7C-5045.1-1585.9-5044.8-1586.2-5044.4-1586.2z"/>
		<path id="Path_79" class="st7" d="M-4988.9-1699.6c1.9,0,3.8-0.2,5.7-0.4c-1.9-0.2-3.8-0.4-5.7-0.4c-0.4,0-0.8-0.4-0.8-0.8
			c0-1.9-0.2-3.8-0.4-5.7c-0.2,1.9-0.4,3.8-0.4,5.7c0,0.4-0.4,0.8-0.8,0.8c-1.9,0-3.8,0.2-5.7,0.4c1.9,0.2,3.8,0.4,5.7,0.4
			c0.4,0,0.8,0.4,0.8,0.8c0,1.9,0.2,3.8,0.4,5.7c0.2-1.9,0.4-3.8,0.4-5.7C-4989.6-1699.2-4989.3-1699.6-4988.9-1699.6z"/>
		<path id="Path_80" class="st7" d="M-4859.3-1657.6c0.5,0.4,1.1,0.7,1.7,1c-0.5-0.4-1-0.9-1.5-1.2c-0.1-0.1-0.1-0.2-0.1-0.4
			c0.4-0.5,0.7-1.1,1-1.7c-0.4,0.5-0.9,1-1.2,1.5c-0.1,0.1-0.2,0.1-0.4,0.1c-0.5-0.4-1.1-0.7-1.7-1c0.5,0.4,1,0.9,1.5,1.2
			c0.1,0.1,0.1,0.2,0.1,0.4c-0.4,0.5-0.7,1.1-1,1.7c0.4-0.5,0.9-1,1.2-1.5C-4859.6-1657.7-4859.4-1657.7-4859.3-1657.6z"/>
		<path id="Path_81" class="st7" d="M-4974.4-1684.4c0.5,0.4,1.1,0.7,1.7,1c-0.5-0.4-1-0.9-1.5-1.2c-0.1-0.1-0.1-0.2-0.1-0.4
			c0.4-0.5,0.7-1.1,1-1.7c-0.4,0.5-0.9,1-1.2,1.5c-0.1,0.1-0.2,0.1-0.4,0.1c-0.5-0.4-1.1-0.7-1.7-1c0.5,0.4,1,0.9,1.5,1.2
			c0.1,0.1,0.1,0.2,0.1,0.4c-0.4,0.5-0.7,1.1-1,1.7c0.4-0.5,0.9-1,1.2-1.5C-4974.7-1684.5-4974.5-1684.5-4974.4-1684.4z"/>
		<path id="Path_82" class="st7" d="M-5043.4-1614.7c0.5,0.4,1.1,0.7,1.7,1c-0.5-0.4-1-0.9-1.5-1.2c-0.1-0.1-0.1-0.2-0.1-0.4
			c0.4-0.5,0.7-1.1,1-1.7c-0.4,0.5-0.9,1-1.2,1.5c-0.1,0.1-0.2,0.1-0.4,0.1c-0.5-0.4-1.1-0.7-1.7-1c0.5,0.4,1,0.9,1.5,1.2
			c0.1,0.1,0.1,0.2,0.1,0.4c-0.4,0.5-0.7,1.1-1,1.7c0.4-0.5,0.9-1,1.2-1.5C-5043.7-1614.7-5043.5-1614.8-5043.4-1614.7z"/>
		<path id="Path_83" class="st7" d="M-4864.9-1515.6c0.5,0.4,1.1,0.7,1.7,1c-0.5-0.4-1-0.9-1.5-1.2c-0.1-0.1-0.1-0.2-0.1-0.4
			c0.4-0.5,0.7-1.1,1-1.7c-0.4,0.5-0.9,1-1.2,1.5c-0.1,0.1-0.2,0.1-0.4,0.1c-0.5-0.4-1.1-0.7-1.7-1c0.5,0.4,1,0.9,1.5,1.2
			c0.1,0.1,0.1,0.2,0.1,0.4c-0.4,0.5-0.7,1.1-1,1.7c0.4-0.5,0.9-1,1.2-1.5C-4865.2-1515.7-4865-1515.7-4864.9-1515.6z"/>
		<path id="Path_84" class="st7" d="M-4840-1554.3c0.5,0.4,1.1,0.7,1.7,1c-0.5-0.4-1-0.9-1.5-1.2c-0.1-0.1-0.1-0.2-0.1-0.4
			c0.4-0.5,0.7-1.1,1-1.7c-0.4,0.5-0.9,1-1.2,1.5c-0.1,0.1-0.2,0.1-0.4,0.1c-0.5-0.4-1.1-0.7-1.7-1c0.5,0.4,1,0.9,1.5,1.2
			c0.1,0.1,0.1,0.2,0.1,0.4c-0.4,0.5-0.7,1.1-1,1.7c0.4-0.5,0.9-1,1.2-1.5C-4840.3-1554.4-4840.1-1554.4-4840-1554.3z"/>
	</g>
	<g id="Group_27" transform="translate(5131.338 1760.847)">
		<path id="Path_85" class="st7" d="M-5004.5-1599.1c-4.9-14.6,6-21.3,16.6-27.8c7.6-4.6,15.4-9.4,17.2-17.1
			c1.9-8.4,0.1-16.4-5.3-23.7c-2.4-3.3-5.4-6.2-8.8-8.6l0.6-1c3.5,2.4,6.5,5.4,9.1,8.8c5.4,7,7.4,16,5.5,24.6
			c-1.8,8.1-9.9,13.1-17.7,17.8c-10.7,6.5-20.8,12.7-16.2,26.4L-5004.5-1599.1z"/>
	</g>
	<path id="Rectangle_3" class="st8" d="M149,62l13.4,5.8c4.1,1.8,6,6.6,4.2,10.7l-7.4,16.9c-1.8,4.1-6.6,6-10.7,4.2l-13.4-5.8
		c-4.1-1.8-6-6.6-4.2-10.7l7.4-16.9C140.1,62.1,144.9,60.2,149,62z"/>
	<g id="Group_28" transform="translate(5131.338 1760.847)">
		
			<rect id="Rectangle_4" x="-4997.3" y="-1692.6" transform="matrix(0.401 -0.9161 0.9161 0.401 -1444.5543 -5571.0059)" class="st9" width="30.1" height="23.4"/>
		<path id="Path_86" class="st10" d="M-4987.2-1698.7c1.8,2.1,4.7,3.8,8.9,5.6c4.9,2.1,8.5,3.2,11.5,2.6l-20.1-8.8L-4987.2-1698.7z"
			/>
		<path id="Path_87" class="st9" d="M-4974.4-1673.1l-18.8-8.2c-2.6-1.1-3.5,1.3-4.8,4.3l0,0c-1.3,3-2.4,5.3,0.1,6.5l18.8,8.2
			c2.6,1.1,3.5-1.3,4.8-4.3l0,0C-4973-1669.6-4971.9-1672-4974.4-1673.1z"/>
		
			<rect id="Rectangle_5" x="-5002.8" y="-1669.5" transform="matrix(0.401 -0.9161 0.9161 0.401 -1467.9417 -5575.2549)" class="st9" width="11.3" height="8.7"/>
		
			<rect id="Rectangle_6" x="-5000" y="-1663.9" transform="matrix(0.401 -0.9161 0.9161 0.401 -1474.5551 -5574.2158)" class="st11" width="0.8" height="8.7"/>
		<path id="Path_88" class="st9" d="M-5000.9-1645.9l-8-3.5l4.5-11.9l9.1,4L-5000.9-1645.9z"/>
		<path id="Path_89" class="st10" d="M-5011-1650.3c0,0,0.8-5.7,4.2-3.5s4.6,7.3,4.6,7.3L-5011-1650.3z"/>
		
			<rect id="Rectangle_7" x="-5006.5" y="-1653.3" transform="matrix(0.401 -0.9161 0.9161 0.401 -1489.106 -5572.8506)" class="st11" width="0.8" height="11.1"/>
		<path id="Path_90" class="st10" d="M-5001.9-1646.3l1,0.4l1-2C-5001.3-1647.9-5001.9-1646.3-5001.9-1646.3z"/>
		
			<rect id="Rectangle_8" x="-4989.3" y="-1663.6" transform="matrix(0.401 -0.9161 0.9161 0.401 -1465.267 -5559.3442)" class="st9" width="11.3" height="8.7"/>
		
			<rect id="Rectangle_9" x="-4986.5" y="-1658" transform="matrix(0.401 -0.9161 0.9161 0.401 -1471.8809 -5558.3047)" class="st11" width="0.8" height="8.7"/>
		<path id="Path_91" class="st9" d="M-4994.7-1704.3l-5.5,6.8l8.7,5.5l4.6-7.4L-4994.7-1704.3z"/>
		<path id="Path_92" class="st12" d="M-5001.9-1712.9l-6.6,5.6l6.9,8.9l7.4-6.3L-5001.9-1712.9z"/>
		<path id="Path_93" class="st9" d="M-5001.9-1712.9l-6.6,5.6l6.9,8.9l7.4-6.3L-5001.9-1712.9z"/>
		
			<rect id="Rectangle_10" x="-5009.9" y="-1710.4" transform="matrix(0.76 -0.65 0.65 0.76 -89.9023 -3663.834)" class="st11" width="9" height="0.4"/>
		<path id="Rectangle_11" class="st9" d="M-5011.3-1717.5l0.7-0.6c1.3-1.1,3.3-1,4.4,0.3l0,0l4,4.6l0,0l-6.6,5.6l0,0l-3-3.6
			C-5013.5-1713-5013.2-1715.9-5011.3-1717.5z"/>
		<path id="Path_94" class="st9" d="M-4995.3-1643.4l8,3.5l5.7-11.3l-9.1-4L-4995.3-1643.4z"/>
		<path id="Path_95" class="st10" d="M-4985.2-1639c0,0,3.6-4.5-0.3-5.4s-8.5,1.6-8.5,1.6L-4985.2-1639z"/>
		
			<rect id="Rectangle_12" x="-4990.8" y="-1646.4" transform="matrix(0.401 -0.9161 0.9161 0.401 -1485.9952 -5554.3428)" class="st11" width="0.8" height="11.1"/>
		<path id="Path_96" class="st10" d="M-4994.3-1643l-1-0.4l0.8-2.1C-4994-1644.8-4993.9-1643.8-4994.3-1643z"/>
		<path id="Path_97" class="st10" d="M-5002.3-1713.1l1.1-2.5c0.3-0.6,0-1.4-0.7-1.7c0,0,0,0,0,0c-0.6-0.3-1.4,0-1.7,0.7l-0.8,1.9
			c-1-0.2-2,0.2-2.7,1c-1.6,2.1,1,3.8,1,3.8L-5002.3-1713.1z"/>
		<path id="Path_98" class="st9" d="M-4967.9-1666.3l8.6-1.2l-1-11.2l-9.7,1.3L-4967.9-1666.3z"/>
		
			<rect id="Rectangle_13" x="-4968.1" y="-1666.9" transform="matrix(0.9905 -0.1373 0.1373 0.9905 181.8212 -697.2222)" class="st11" width="9" height="0.4"/>
		<path id="Path_99" class="st9" d="M-4958.5-1662l-0.7-5.2l-6,0.8l0,0l-2.6,0.4v0l-1.8,2.9c-0.4,0.6-0.2,1.4,0.4,1.8c0,0,0,0,0,0
			c0.6,0.4,1.4,0.2,1.8-0.4c0,0,0,0,0,0l0.2-0.4l0.3,2.5c0.2,1.5,1.6,2.6,3.2,2.4l1.8-0.3C-4959.7-1657.7-4958.2-1659.8-4958.5-1662
			C-4958.5-1662-4958.5-1662-4958.5-1662z"/>
		<path id="Path_100" class="st11" d="M-4961.2-1678.5c0.1-0.6,0-1.2-0.4-1.6l-7.7,2.8L-4961.2-1678.5z"/>
		<path id="Path_101" class="st9" d="M-4964.6-1688.6l-5.6,10l0.5,1.3l8.2-2.9L-4964.6-1688.6z"/>
		<path id="Path_102" class="st11" d="M-4965.5-1690c0.6,0.2,0.9,0.8,0.9,1.4l-5.6,10l-0.2-0.1L-4965.5-1690z"/>
		<path id="Path_103" class="st11" d="M-4991.5-1692c0.3,0.3,0.7,0.5,1.1,0.6l3.5-8L-4991.5-1692z"/>
		<path id="Path_104" class="st11" d="M-5001.4-1698.6L-5001.4-1698.6c0.2,0.5,0.7,0.9,1.2,1.1l5.5-6.8L-5001.4-1698.6z"/>
		<path id="Path_105" class="st10" d="M-4999.1-1671.5L-4999.1-1671.5l5.7,3.6l-6.1-4.9C-4999.5-1672.3-4999.4-1671.8-4999.1-1671.5
			z"/>
		<path id="Path_106" class="st10" d="M-4976.5-1662.7l-7.6-1.1l6.4,1.7l0,0C-4977.2-1662.1-4976.8-1662.3-4976.5-1662.7z"/>
		<path id="Path_107" class="st10" d="M-5000.2-1697.5l9.4,4.4l-0.6,1L-5000.2-1697.5z"/>
		<path id="Path_108" class="st10" d="M-4969.5-1679.8l0.2,2.4l-0.4,0.2l-0.5-1.3L-4969.5-1679.8z"/>
		<path id="Path_109" class="st10" d="M-5008.5-1707.2l7.6,8.3l-0.7,0.6L-5008.5-1707.2z"/>
		<path id="Path_110" class="st10" d="M-4969.9-1677.3l1-0.1l1.1,11.2L-4969.9-1677.3z"/>
		<path id="Path_111" class="st10" d="M-5000.5-1668.4l-2.1,7l-0.8-0.4L-5000.5-1668.4z"/>
		<path id="Path_112" class="st10" d="M-4987.1-1662.1l-1.8,6.7l-0.9-0.4L-4987.1-1662.1z"/>
	</g>
	<g id="Group_31" transform="translate(5131.338 1760.847)">
		
			<ellipse id="Ellipse_1" transform="matrix(0.8189 -0.5739 0.5739 0.8189 80.1743 -3161.8843)" class="st9" cx="-4970.4" cy="-1708" rx="15.8" ry="15.8"/>
		<path id="Path_113" class="st10" d="M-4982.7-1712.2c4.2-9.7,12.8-11.6,20.8-8.1c1.7,0.7,3.2,1.7,4.6,2.8
			c-1.8-2.2-4.1-3.9-6.7-4.9c-8-3.5-16.6-1.5-20.8,8.1c-3.9,8.9-3.5,13.3,0.9,16.8C-4986.2-1700.7-4985.9-1704.9-4982.7-1712.2z"/>
		
			<ellipse id="Ellipse_2" transform="matrix(0.401 -0.9161 0.9161 0.401 -1413.9109 -5576.2285)" class="st13" cx="-4970.8" cy="-1707" rx="12.4" ry="15.1"/>
		
			<ellipse id="Ellipse_3" transform="matrix(0.401 -0.9161 0.9161 0.401 -1413.6755 -5576.0117)" class="st3" cx="-4970.8" cy="-1707" rx="12" ry="14.7"/>
		<path id="Path_114" class="st14" d="M-4972.7-1697.6c-11.3-6.2-11.2-10.2-7.1-17.6c0.9-1.7,2.3-3.1,3.9-4.2c-3.8,0.6-7,3-8.5,6.5
			c-3.4,7.8-3.2,11.8,8.7,16.9c6.5,2.9,10.4,3.4,13.1,2C-4965-1694-4968.2-1695.2-4972.7-1697.6z"/>
		<g id="Group_29">
			<path id="Path_115" class="st13" d="M-4984.8-1714.3c0.1-0.2,0.2-0.4,0.3-0.6l-2.1-0.9c-0.2-0.1-0.5,0-0.6,0.2l-2.9,5.7
				c-0.1,0.3,0,0.6,0.2,0.7c0,0,0,0,0,0l2.8,1.2C-4986.5-1710.1-4985.8-1712.3-4984.8-1714.3z"/>
			<path id="Path_116" class="st15" d="M-4986-1713.6c-0.1,0.3-0.4,0.4-0.7,0.3c-0.3-0.1-0.4-0.4-0.3-0.7c0,0,0,0,0,0
				c0.1-0.3,0.4-0.4,0.7-0.3l0,0C-4986-1714.2-4985.9-1713.9-4986-1713.6C-4986-1713.6-4986-1713.6-4986-1713.6z"/>
			<path id="Path_117" class="st11" d="M-4986.9-1710.4c-0.2,0.5-0.8,0.7-1.3,0.5c-0.5-0.2-0.7-0.8-0.5-1.3c0.2-0.5,0.8-0.7,1.3-0.5
				C-4986.9-1711.5-4986.7-1710.9-4986.9-1710.4z"/>
			<path id="Path_118" class="st15" d="M-4987.3-1710.6c-0.1,0.3-0.5,0.4-0.8,0.3c-0.3-0.1-0.4-0.5-0.3-0.8c0.1-0.3,0.5-0.4,0.8-0.3
				C-4987.3-1711.2-4987.1-1710.9-4987.3-1710.6z"/>
		</g>
		<g id="Group_30">
			<path id="Path_119" class="st13" d="M-4953.3-1700.8c0.1-0.2-0.1-0.5-0.3-0.6l-2.1-0.9c-0.1,0.2-0.2,0.4-0.2,0.6
				c-0.9,2.1-1.9,4.1-3.2,6l2.8,1.2c0.3,0.1,0.6,0,0.7-0.3c0,0,0,0,0,0L-4953.3-1700.8z"/>
			<path id="Path_120" class="st15" d="M-4955.6-1700.3c-0.1,0.3,0,0.6,0.3,0.7l0,0c0.3,0.1,0.6,0,0.7-0.3c0,0,0,0,0,0
				c0.1-0.3,0-0.6-0.3-0.7l0,0C-4955.2-1700.7-4955.5-1700.6-4955.6-1700.3C-4955.6-1700.3-4955.6-1700.3-4955.6-1700.3z"/>
			<path id="Path_121" class="st11" d="M-4957.4-1697.5c-0.2,0.5,0,1.1,0.5,1.3c0.5,0.2,1.1,0,1.3-0.5c0.2-0.5,0-1.1-0.5-1.3
				C-4956.6-1698.2-4957.1-1698-4957.4-1697.5C-4957.4-1697.5-4957.4-1697.5-4957.4-1697.5z"/>
			<path id="Path_122" class="st15" d="M-4957-1697.3c-0.1,0.3,0,0.7,0.3,0.8c0.3,0.1,0.7,0,0.8-0.3c0.1-0.3,0-0.7-0.3-0.8
				C-4956.5-1697.8-4956.9-1697.6-4957-1697.3z"/>
		</g>
		<path id="Path_123" class="st16" d="M-4963.3-1712.1c0.9-1,3.5,1.4,4.5,3.4s1,3.9,0,4.2c-1.4,0.5-1.2-1.8-2.5-3.7
			C-4962-1709.2-4964.2-1711-4963.3-1712.1z"/>
	</g>
	<g id="Group_34" transform="translate(5131.338 1760.847)">
		<g id="Group_32">
			<path id="Path_124" class="st17" d="M-4985.6-1672.5c-2.7-1.1-4.1-4.2-3-6.9c1.1-2.7,4.2-4.1,6.9-3c2.7,1.1,4.1,4.2,3,6.9
				C-4979.8-1672.7-4982.8-1671.4-4985.6-1672.5z M-4982.2-1681c-2-0.8-4.2,0.2-5,2.2c-0.8,2,0.2,4.2,2.2,5c2,0.8,4.2-0.2,5-2.2
				C-4979.3-1677.9-4980.2-1680.2-4982.2-1681z"/>
		</g>
		<g id="Group_33">
			<path id="Path_125" class="st1" d="M-4983.2-1676.4l-1.4-0.5v0c0.1-0.2,2.3-6.1-0.3-10.8l1.3-0.7c1.2,2.3,1.7,4.9,1.4,7.5
				c1.6-2.1,3.7-3.7,6.2-4.5l0.4,1.4C-4980.7-1682.4-4983.1-1676.6-4983.2-1676.4L-4983.2-1676.4z"/>
		</g>
	</g>
	<circle id="Ellipse_4" class="st17" cx="129" cy="161.7" r="3"/>
</g>
</svg>
